REM DIRINDEX 1\2,1\3,1\4,1\6,1\5\7,1\5\8
REM DIRNAME folder01,folder02,folder03,folder04,folder05,folder06,folder07,folder08
TITLE ""
FILE "DB4500_5th_2A_29.mp3" MP3
  TRACK 01 AUDIO
    TITLE "0:"
    INDEX 01 00:00:00
  TRACK 02 AUDIO
    TITLE "2:cjc114_0897"
    INDEX 01 00:00:01
  TRACK 03 AUDIO
    TITLE "0:"
    INDEX 01 00:00:74
  TRACK 04 AUDIO
    TITLE "3:cjc114_0898"
    INDEX 01 00:01:28
  TRACK 05 AUDIO
    TITLE "0:"
    INDEX 01 00:02:63
  TRACK 06 AUDIO
    TITLE "4:cjc114_0899"
    INDEX 01 00:03:15
  TRACK 07 AUDIO
    TITLE "0:"
    INDEX 01 00:06:30
  TRACK 08 AUDIO
    TITLE "2:cjc114_0900"
    INDEX 01 00:07:05
  TRACK 09 AUDIO
    TITLE "0:"
    INDEX 01 00:08:09
  TRACK 10 AUDIO
    TITLE "3:cjc114_0901"
    INDEX 01 00:08:40
  TRACK 11 AUDIO
    TITLE "0:"
    INDEX 01 00:09:42
  TRACK 12 AUDIO
    TITLE "4:cjc114_0902"
    INDEX 01 00:09:69
  TRACK 13 AUDIO
    TITLE "0:"
    INDEX 01 00:12:24
  TRACK 14 AUDIO
    TITLE "4:cjc114_0903"
    INDEX 01 00:12:63
  TRACK 15 AUDIO
    TITLE "0:"
    INDEX 01 00:16:42
  TRACK 16 AUDIO
    TITLE "2:cjc114_0904"
    INDEX 01 00:17:20
  TRACK 17 AUDIO
    TITLE "0:"
    INDEX 01 00:18:27
  TRACK 18 AUDIO
    TITLE "3:cjc114_0905"
    INDEX 01 00:18:56
  TRACK 19 AUDIO
    TITLE "0:"
    INDEX 01 00:19:62
  TRACK 20 AUDIO
    TITLE "4:cjc114_0906"
    INDEX 01 00:20:16
  TRACK 21 AUDIO
    TITLE "0:"
    INDEX 01 00:22:56
  TRACK 22 AUDIO
    TITLE "2:cjc114_0907"
    INDEX 01 00:23:34
  TRACK 23 AUDIO
    TITLE "0:"
    INDEX 01 00:24:51
  TRACK 24 AUDIO
    TITLE "3:cjc114_0908"
    INDEX 01 00:25:05
  TRACK 25 AUDIO
    TITLE "0:"
    INDEX 01 00:26:18
  TRACK 26 AUDIO
    TITLE "4:cjc114_0909"
    INDEX 01 00:26:46
  TRACK 27 AUDIO
    TITLE "0:"
    INDEX 01 00:29:60
  TRACK 28 AUDIO
    TITLE "2:cjc114_0910"
    INDEX 01 00:30:38
  TRACK 29 AUDIO
    TITLE "0:"
    INDEX 01 00:31:45
  TRACK 30 AUDIO
    TITLE "3:cjc114_0911"
    INDEX 01 00:32:01
  TRACK 31 AUDIO
    TITLE "0:"
    INDEX 01 00:33:11
  TRACK 32 AUDIO
    TITLE "4:cjc114_0912"
    INDEX 01 00:33:34
  TRACK 33 AUDIO
    TITLE "0:"
    INDEX 01 00:36:56
  TRACK 34 AUDIO
    TITLE "2:cjc114_0913"
    INDEX 01 00:37:36
  TRACK 35 AUDIO
    TITLE "0:"
    INDEX 01 00:38:51
  TRACK 36 AUDIO
    TITLE "3:cjc114_0914"
    INDEX 01 00:39:02
  TRACK 37 AUDIO
    TITLE "0:"
    INDEX 01 00:40:05
  TRACK 38 AUDIO
    TITLE "4:cjc114_0915"
    INDEX 01 00:40:32
  TRACK 39 AUDIO
    TITLE "0:"
    INDEX 01 00:43:17
  TRACK 40 AUDIO
    TITLE "2:cjc114_0916"
    INDEX 01 00:43:70
  TRACK 41 AUDIO
    TITLE "0:"
    INDEX 01 00:45:10
  TRACK 42 AUDIO
    TITLE "3:cjc114_0917"
    INDEX 01 00:45:35
  TRACK 43 AUDIO
    TITLE "0:"
    INDEX 01 00:46:56
  TRACK 44 AUDIO
    TITLE "4:cjc114_0918"
    INDEX 01 00:47:21
  TRACK 45 AUDIO
    TITLE "0:"
    INDEX 01 00:50:48
  TRACK 46 AUDIO
    TITLE "2:cjc114_0919"
    INDEX 01 00:51:28
  TRACK 47 AUDIO
    TITLE "0:"
    INDEX 01 00:52:24
  TRACK 48 AUDIO
    TITLE "3:cjc114_0920"
    INDEX 01 00:52:53
  TRACK 49 AUDIO
    TITLE "0:"
    INDEX 01 00:53:60
  TRACK 50 AUDIO
    TITLE "4:cjc114_0921"
    INDEX 01 00:54:13
  TRACK 51 AUDIO
    TITLE "0:"
    INDEX 01 00:56:57
  TRACK 52 AUDIO
    TITLE "2:cjc114_0922"
    INDEX 01 00:57:25
  TRACK 53 AUDIO
    TITLE "0:"
    INDEX 01 00:58:36
  TRACK 54 AUDIO
    TITLE "3:cjc114_0923"
    INDEX 01 00:58:58
  TRACK 55 AUDIO
    TITLE "0:"
    INDEX 01 01:00:17
  TRACK 56 AUDIO
    TITLE "4:cjc114_0924"
    INDEX 01 01:00:39
  TRACK 57 AUDIO
    TITLE "0:"
    INDEX 01 01:04:11
  TRACK 58 AUDIO
    TITLE "2:cjc114_0925"
    INDEX 01 01:04:58
  TRACK 59 AUDIO
    TITLE "0:"
    INDEX 01 01:05:40
  TRACK 60 AUDIO
    TITLE "3:cjc114_0926"
    INDEX 01 01:05:71
  TRACK 61 AUDIO
    TITLE "0:"
    INDEX 01 01:07:31
  TRACK 62 AUDIO
    TITLE "4:cjc114_0927"
    INDEX 01 01:07:55
  TRACK 63 AUDIO
    TITLE "0:"
    INDEX 01 01:10:61
  TRACK 64 AUDIO
    TITLE "2:cjc114_0928"
    INDEX 01 01:11:31
  TRACK 65 AUDIO
    TITLE "0:"
    INDEX 01 01:12:46
  TRACK 66 AUDIO
    TITLE "3:cjc114_0929"
    INDEX 01 01:12:68
  TRACK 67 AUDIO
    TITLE "0:"
    INDEX 01 01:14:21
  TRACK 68 AUDIO
    TITLE "4:cjc114_0930"
    INDEX 01 01:14:41
  TRACK 69 AUDIO
    TITLE "0:"
    INDEX 01 01:19:21
  TRACK 70 AUDIO
    TITLE "2:cjc114_0931"
    INDEX 01 01:19:70
  TRACK 71 AUDIO
    TITLE "0:"
    INDEX 01 01:21:23
  TRACK 72 AUDIO
    TITLE "3:cjc114_0932"
    INDEX 01 01:21:47
  TRACK 73 AUDIO
    TITLE "0:"
    INDEX 01 01:23:48
  TRACK 74 AUDIO
    TITLE "4:cjc114_0933"
    INDEX 01 01:23:73
  TRACK 75 AUDIO
    TITLE "0:"
    INDEX 01 01:28:74
